<?xml version="1.0" standalone="no"?>
<!DOCTYPE svg PUBLIC "-//W3C//DTD SVG 20010904//EN"
 "http://www.w3.org/TR/2001/REC-SVG-20010904/DTD/svg10.dtd">
<svg version="1.0" xmlns="http://www.w3.org/2000/svg"
 width="1633.000000pt" height="1633.000000pt" viewBox="0 0 1633.000000 1633.000000"
 preserveAspectRatio="xMidYMid meet">

<g transform="translate(0.000000,1633.000000) scale(0.100000,-0.100000)"
fill="#000000" stroke="none">
<path d="M7650 16309 c-978 -69 -1847 -275 -2700 -642 -1513 -649 -2795 -1741
-3680 -3132 -1122 -1764 -1522 -3920 -1109 -5980 540 -2697 2420 -4953 4977
-5974 1825 -729 3915 -770 5753 -112 1678 600 3092 1705 4074 3186 809 1219
1256 2561 1346 4043 15 254 7 926 -15 1162 -101 1089 -363 2013 -838 2960
-204 408 -394 724 -643 1073 -279 390 -505 658 -844 1001 -657 665 -1340 1160
-2171 1575 -935 467 -1856 726 -2940 827 -203 19 -1006 28 -1210 13z m1025
-500 c802 -56 1564 -225 2280 -506 1467 -577 2716 -1584 3587 -2893 165 -247
178 -273 178 -347 -1 -134 -91 -223 -227 -223 -46 0 -69 6 -108 29 -44 25 -62
46 -129 153 -699 1099 -1689 1997 -2851 2583 -1407 709 -2999 936 -4562 650
-320 -59 -633 -141 -973 -255 -375 -125 -646 -240 -1014 -428 -118 -61 -232
-113 -254 -117 -49 -8 -115 9 -163 41 -109 74 -121 253 -22 346 36 34 262 155
486 259 957 449 1923 679 3027 723 132 5 589 -4 745 -15z m-15 -869 c574 -46
1111 -153 1620 -323 851 -284 1666 -756 2323 -1347 263 -235 277 -253 277
-350 0 -80 -54 -163 -123 -189 -43 -16 -134 -13 -170 5 -18 10 -81 63 -142
119 -748 693 -1596 1174 -2555 1450 -1170 335 -2420 321 -3585 -40 -1708 -531
-3128 -1791 -3859 -3428 -94 -211 -151 -357 -231 -602 -410 -1241 -418 -2579
-25 -3834 248 -790 659 -1532 1209 -2181 128 -151 435 -465 586 -600 475 -424
988 -763 1544 -1020 712 -330 1453 -518 2251 -571 221 -15 769 -6 980 16 814
83 1560 302 2266 664 1661 855 2865 2417 3258 4231 50 229 53 237 95 279 97
97 264 71 325 -51 33 -66 33 -85 -5 -264 -185 -890 -567 -1760 -1102 -2505
-479 -669 -1060 -1229 -1747 -1684 -830 -550 -1774 -908 -2750 -1044 -342 -47
-476 -55 -925 -56 -440 0 -550 6 -865 46 -2269 291 -4241 1735 -5202 3810
-327 707 -520 1435 -595 2239 -21 233 -24 861 -5 1085 81 932 307 1731 716
2530 1063 2079 3137 3452 5461 3615 83 6 184 12 225 14 123 6 615 -3 750 -14z
m126 -1120 c965 -120 1868 -484 2650 -1067 1201 -896 1999 -2264 2183 -3743
42 -337 52 -570 26 -619 -47 -92 -169 -119 -245 -54 -51 42 -57 66 -69 263
-46 722 -217 1369 -531 2005 -344 700 -818 1291 -1426 1779 -304 244 -597 431
-949 606 -542 269 -1079 430 -1697 509 -164 21 -205 38 -232 95 -9 19 -16 55
-16 81 0 75 35 125 107 151 21 7 38 13 39 14 0 0 72 -9 160 -20z m-3187 -630
c53 -27 81 -74 81 -139 0 -54 -15 -95 -46 -123 -11 -9 -68 -44 -129 -78 -249
-141 -549 -352 -795 -558 -161 -136 -486 -462 -619 -621 -668 -801 -1063
-1707 -1196 -2742 -18 -143 -27 -183 -44 -208 -31 -43 -70 -61 -133 -61 -62 0
-108 24 -139 72 -18 30 -20 43 -15 138 19 347 152 929 308 1349 443 1191 1256
2177 2338 2838 258 157 309 175 389 133z m-3540 -763 c64 -43 95 -97 99 -178
5 -78 5 -77 -145 -319 -409 -657 -719 -1423 -892 -2205 -92 -413 -146 -832
-167 -1283 -6 -138 -9 -159 -33 -205 -65 -128 -246 -156 -350 -55 -71 69 -77
104 -62 374 75 1339 459 2560 1160 3681 91 146 118 177 176 205 60 28 159 21
214 -15z m4972 -104 c31 -19 69 -85 69 -121 0 -33 -24 -84 -51 -108 -13 -12
-87 -42 -164 -66 -1369 -440 -2414 -1558 -2765 -2956 -17 -68 -38 -135 -47
-148 -23 -35 -65 -54 -120 -54 -71 0 -114 33 -133 103 -10 34 -6 59 25 185 93
374 255 776 450 1118 85 148 272 424 377 555 540 676 1243 1171 2063 1451 184
63 245 71 296 41z m3141 -292 c434 -223 798 -488 1138 -830 336 -338 597 -701
813 -1131 219 -435 354 -853 427 -1330 31 -200 25 -251 -36 -299 -37 -29 -124
-29 -165 0 -42 29 -55 62 -68 164 -151 1146 -772 2177 -1721 2855 -147 105
-376 243 -547 329 -113 58 -123 65 -143 107 -48 98 18 204 127 204 31 0 73
-16 175 -69z m-3882 -2637 c0 -3 -110 -348 -245 -766 -135 -417 -245 -766
-245 -774 0 -12 36 -14 225 -14 124 0 225 3 225 7 0 3 -18 63 -41 132 -23 69
-41 135 -41 146 0 20 247 797 262 824 9 16 -15 85 370 -1104 160 -495 293
-906 295 -913 4 -10 -52 -12 -272 -10 l-276 3 -55 173 -56 172 -416 0 -417 0
-54 -172 -55 -173 -272 -3 c-150 -1 -272 1 -272 5 -1 5 178 563 397 1240 l398
1233 273 0 c149 0 272 -3 272 -6z m2644 -33 c100 -49 183 -137 241 -254 63
-128 75 -193 75 -424 l0 -193 -255 0 -255 0 0 170 0 170 -525 0 -525 0 0 -665
0 -665 525 0 525 0 0 165 0 165 255 0 255 0 0 -192 c0 -228 -12 -297 -70 -416
-74 -149 -217 -265 -359 -292 -75 -14 -1139 -13 -1216 1 -74 14 -156 55 -217
109 -66 57 -143 179 -176 275 l-27 80 -3 735 c-3 821 -3 828 64 968 61 127
203 256 323 292 14 5 312 8 661 7 l635 -2 69 -34z m2426 -246 l0 -285 -710 0
-710 0 0 -190 0 -190 695 0 695 0 0 -285 0 -285 -695 0 -695 0 0 -190 0 -190
725 0 725 0 0 -290 0 -290 -738 0 c-489 0 -758 4 -797 11 -74 14 -156 55 -217
109 -66 57 -143 179 -176 275 l-27 80 -3 735 c-3 821 -3 828 64 968 61 127
204 256 323 292 14 5 367 9 784 9 l757 1 0 -285z m4291 167 c70 -36 105 -92
118 -187 56 -400 70 -1105 31 -1560 -110 -1304 -523 -2501 -1236 -3587 -84
-127 -112 -162 -147 -182 -140 -83 -307 -8 -342 152 -15 73 1 113 119 294 653
999 1039 2103 1151 3292 36 381 36 948 0 1306 -27 272 -29 316 -15 352 52 131
197 185 321 120z m-11676 -1702 c43 -27 54 -54 82 -215 107 -621 363 -1229
730 -1733 262 -359 603 -698 955 -949 123 -88 322 -212 460 -286 48 -26 96
-59 107 -73 31 -39 36 -87 16 -140 -22 -58 -62 -84 -130 -84 -42 0 -67 10
-177 70 -996 546 -1748 1457 -2097 2542 -92 287 -180 716 -161 787 9 36 50 83
80 94 35 13 104 6 135 -13z m8493 -199 c17 -12 38 -41 47 -64 15 -41 15 -49
-5 -148 -186 -925 -694 -1802 -1410 -2432 -314 -276 -624 -482 -1008 -670
-139 -68 -175 -82 -213 -81 -54 1 -91 21 -120 67 -28 44 -22 127 11 162 13 14
105 66 204 115 574 282 1045 663 1452 1171 87 109 280 395 349 519 130 230
256 517 336 763 42 130 113 402 124 480 19 124 139 185 233 118z m-11244
-1483 c75 -23 115 -76 170 -228 317 -875 846 -1731 1506 -2435 133 -143 153
-176 153 -262 0 -53 -5 -72 -30 -111 -67 -108 -199 -141 -309 -77 -70 41 -410
423 -623 700 -310 402 -569 818 -795 1275 -152 307 -327 722 -367 872 -46 172
116 319 295 266z m3189 -1339 c12 -7 69 -56 127 -109 1491 -1375 3611 -1770
5497 -1024 330 131 647 297 956 502 118 79 131 85 180 86 102 1 171 -71 164
-172 -2 -32 -12 -64 -24 -80 -49 -68 -424 -297 -748 -457 -676 -334 -1360
-516 -2125 -566 -227 -14 -673 -7 -890 16 -988 102 -1891 441 -2691 1011 -265
189 -623 496 -660 566 -40 78 -17 175 53 218 37 23 126 27 161 9z m8323 -2104
c128 -38 189 -184 129 -312 -21 -46 -39 -64 -147 -144 -739 -547 -1585 -962
-2473 -1213 -1281 -362 -2679 -380 -3975 -50 -276 70 -471 131 -514 161 -108
76 -118 253 -19 344 78 73 147 76 336 18 1731 -532 3669 -369 5297 446 411
206 719 395 1125 692 99 72 151 85 241 58z"/>
</g>
</svg>
